# xmcd
#
# Track frame offsets: 
#        150
#        15190
#        31435
#        48845
#        60687
#        74187
#        87302
#        103747
#        118082
#        136620
#        152840
#        165720
#        181297
#        193650
#        205495
#        221927
#        241062
#        251422
#        266242
#        275627
#
# Disc length: 3800 seconds
#
# Revision: 0
# Processed by: cddbd v1.4PL0 Copyright (c) Steve Scherf et al.
# Submitted via: ExactAudioCopy v0.90b4
#
DISCID=2b0ed614
DTITLE=The Cliffters - On The Rocks
DYEAR=1992
DGENRE=Vocal
TTITLE0=Town Without Pity
TTITLE1=The Hurt Put On By You
TTITLE2=Sea Of Love
TTITLE3=Wear My Ring
TTITLE4=Got A Funny Feeling
TTITLE5=Just Because
TTITLE6=Pocketfull Of Rainbows - Evergreen Tree
TTITLE7=High School Confidential
TTITLE8=Surrender
TTITLE9=Young Ones
TTITLE10=Great Balls Of Fire
TTITLE11=Beaty And The Beast
TTITLE12=Jitterboogie
TTITLE13=Missing Link
TTITLE14=Memphis Tennessee
TTITLE15=High Noon
TTITLE16=Amapola
TTITLE17=Andalucia
TTITLE18=Orange Blossom Special
TTITLE19=Amoranda
EXTD=
EXTT0=
EXTT1=
EXTT2=
EXTT3=
EXTT4=
EXTT5=
EXTT6=
EXTT7=
EXTT8=
EXTT9=
EXTT10=
EXTT11=
EXTT12=
EXTT13=
EXTT14=
EXTT15=
EXTT16=
EXTT17=
EXTT18=
EXTT19=
PLAYORDER=
